<svg width="300" height="300" viewBox="0 0 300 300" fill="none" xmlns="http://www.w3.org/2000/svg">
<rect width="300" height="300" fill="#384053"/>
<path d="M175.709 112.427L167.482 114.683V105.511C167.482 102.467 165.014 100 161.971 100C158.926 100 156.458 102.468 156.458 105.511V117.705L143.334 121.304V105.511C143.334 102.467 140.867 100 137.823 100C134.779 100 132.311 102.468 132.311 105.511V124.326L124.084 126.582C121.325 126.582 119.088 128.819 119.088 131.578V146.566C119.088 149.325 121.325 151.562 124.084 151.562L132.311 149.307V160.337L124.084 162.593C121.325 162.593 119.088 164.83 119.088 167.59V182.578C119.088 185.337 121.325 187.574 124.084 187.574L132.311 185.318V194.479C132.311 195.564 132.631 196.624 133.231 197.527C136.251 202.074 143.334 199.937 143.334 194.479V182.295L156.458 178.696V194.479C156.458 195.564 156.778 196.624 157.379 197.527C160.398 202.074 167.482 199.937 167.482 194.479V175.674L175.709 173.418C178.468 173.418 180.705 171.181 180.705 168.422V153.435C180.705 150.676 178.468 148.439 175.709 148.439L167.482 150.694V139.664L175.709 137.408C178.468 137.408 180.705 135.171 180.705 132.411V117.423C180.705 114.664 178.468 112.427 175.709 112.427ZM156.458 153.716L143.334 157.315V146.285L156.458 142.686V153.716Z" fill="white"/>
<path d="M91.3984 118.711L83.9246 110.049C83.1629 108.621 83.0465 107.157 83.5754 105.657C84.0712 104.25 84.9533 103.243 86.2216 102.636C87.6167 101.968 88.9707 101.865 90.2835 102.328C91.7839 102.857 92.8047 103.849 93.3457 105.305L98.487 115.201C98.8183 116.056 98.8021 116.999 98.4385 118.03C98.0419 119.156 97.3996 119.931 96.5118 120.356C95.4972 120.842 94.4741 120.903 93.4426 120.539C92.6924 120.275 92.011 119.665 91.3984 118.711Z" fill="white"/>
<path d="M208.486 119.119L201.012 110.457C200.251 109.029 200.134 107.564 200.663 106.064C201.159 104.657 202.041 103.65 203.309 103.043C204.705 102.375 206.059 102.273 207.371 102.735C208.872 103.264 209.893 104.257 210.434 105.712L215.575 115.608C215.906 116.463 215.89 117.406 215.526 118.437C215.13 119.563 214.488 120.338 213.6 120.763C212.585 121.249 211.562 121.31 210.53 120.946C209.78 120.682 209.099 120.073 208.486 119.119Z" fill="white"/>
</svg>
