<svg width="160" height="160" viewBox="0 0 160 160" fill="none" xmlns="http://www.w3.org/2000/svg">
<path d="M109.586 39.9903L100.574 42.4612V32.4146C100.574 29.0798 97.8708 26.3779 94.5373 26.3779C91.2025 26.3779 88.4993 29.0811 88.4993 32.4146V45.7716L74.1236 49.7136V32.4146C74.1236 29.0798 71.4204 26.3779 68.0869 26.3779C64.7521 26.3779 62.0489 29.0811 62.0489 32.4146V53.024L53.0374 55.4949C50.015 55.4949 47.5645 57.9454 47.5645 60.9678V77.3852C47.5645 80.4076 50.015 82.8582 53.0374 82.8582L62.0489 80.3873V92.4701L53.0374 94.941C50.015 94.941 47.5645 97.3915 47.5645 100.414V116.831C47.5645 119.854 50.015 122.304 53.0374 122.304L62.0489 119.833V129.868C62.0489 131.056 62.3994 132.218 63.0568 133.207C66.3645 138.188 74.1236 135.846 74.1236 129.868V116.522L88.4993 112.58V129.868C88.4993 131.056 88.8498 132.218 89.5072 133.207C92.8149 138.188 100.574 135.846 100.574 129.868V109.269L109.586 106.798C112.608 106.798 115.058 104.348 115.058 101.325V84.9093C115.058 81.8869 112.608 79.4364 109.586 79.4364L100.574 81.9073V69.8245L109.586 67.3536C112.608 67.3536 115.058 64.903 115.058 61.8806V45.4632C115.058 42.4408 112.608 39.9903 109.586 39.9903ZM88.4993 85.2177L74.1236 89.1597V77.0769L88.4993 73.1348V85.2177Z" fill="white"/>
<path d="M28.5137 49.6596L18.3418 37.8706C17.3051 35.9268 17.1467 33.9339 17.8665 31.8919C18.5414 29.9775 19.7418 28.6071 21.468 27.7807C23.3668 26.8716 25.2096 26.732 26.9963 27.3619C29.0384 28.0817 30.4276 29.4323 31.164 31.4137L38.1614 44.8816C38.6122 46.045 38.5902 47.3286 38.0953 48.7325C37.5555 50.264 36.6814 51.319 35.4731 51.8975C34.0922 52.5586 32.6997 52.6417 31.2958 52.1469C30.2748 51.787 29.3474 50.9579 28.5137 49.6596Z" fill="white"/>
<path d="M136.944 49.6596L126.772 37.8706C125.736 35.9268 125.577 33.9339 126.297 31.8919C126.972 29.9775 128.173 28.6071 129.899 27.7807C131.797 26.8716 133.64 26.732 135.427 27.3619C137.469 28.0817 138.858 29.4323 139.595 31.4137L146.592 44.8816C147.043 46.045 147.021 47.3286 146.526 48.7325C145.986 50.264 145.112 51.319 143.904 51.8975C142.523 52.5586 141.13 52.6417 139.726 52.1469C138.705 51.787 137.778 50.9579 136.944 49.6596Z" fill="white"/>
</svg>
